ply
format ascii 1.0
comment Created by Blender 2.77 (sub 0) - www.blender.org, source file: ''
element vertex 500
property float x
property float y
property float z
property float nx
property float ny
property float nz
element face 206
property list uchar uint vertex_indices
end_header
0.000000 0.000000 -100.000000 0.102381 -0.315090 -0.943524
42.532269 -30.901140 -85.065422 0.102381 -0.315090 -0.943524
-16.245556 -49.999527 -85.065445 0.102381 -0.315090 -0.943524
72.360733 -52.572529 -44.721951 0.700224 -0.268032 -0.661699
42.532269 -30.901140 -85.065422 0.700224 -0.268032 -0.661699
85.064789 0.000000 -52.573593 0.700224 -0.268032 -0.661699
0.000000 0.000000 -100.000000 -0.268034 -0.194736 -0.943523
-16.245556 -49.999527 -85.065445 -0.268034 -0.194736 -0.943523
-52.572979 0.000000 -85.065170 -0.268034 -0.194736 -0.943523
0.000000 0.000000 -100.000000 -0.268034 0.194736 -0.943523
-52.572979 0.000000 -85.065170 -0.268034 0.194736 -0.943523
-16.245556 49.999527 -85.065445 -0.268034 0.194736 -0.943523
42.532269 30.901140 -85.065422 0.291569 0.897343 0.331306
-11.686449 64.030731 -127.081314 0.291569 0.897343 0.331306
-16.245556 49.999527 -85.065445 0.291569 0.897343 0.331306
72.360733 -52.572529 -44.721951 0.904989 -0.268032 -0.330384
85.064789 0.000000 -52.573593 0.904989 -0.268032 -0.330384
95.105782 -30.901262 0.000000 0.904989 -0.268032 -0.330384
-27.638802 -85.064926 -44.721985 0.024747 -0.943521 -0.330386
26.286882 -80.901161 -52.573765 0.024747 -0.943521 -0.330386
0.000000 -99.999992 0.000000 0.024747 -0.943521 -0.330386
-89.442619 0.000000 -44.721561 -0.889697 -0.315095 -0.330385
-68.818939 -49.999695 -52.573620 -0.889697 -0.315095 -0.330385
-95.105782 -30.901262 0.000000 -0.889697 -0.315095 -0.330385
-27.638802 85.064926 -44.721985 -0.574602 0.748784 -0.330388
-68.818939 49.999695 -52.573620 -0.574602 0.748784 -0.330388
-58.778561 80.901672 0.000000 -0.574602 0.748784 -0.330388
72.360733 52.572529 -44.721951 0.534576 0.777865 -0.330387
26.286882 80.901161 -52.573765 0.534576 0.777865 -0.330387
58.778561 80.901672 0.000000 0.534576 0.777865 -0.330387
95.105782 -30.901262 0.000000 0.101635 -0.073842 0.992077
105.568504 -114.896370 -7.323733 0.101635 -0.073842 0.992077
141.895737 -64.895966 -7.323733 0.101635 -0.073842 0.992077
-27.638802 -85.064926 -44.721985 -0.306569 -0.943521 -0.125629
0.000000 -99.999992 0.000000 -0.306569 -0.943521 -0.125629
-58.778561 -80.901672 0.000000 -0.306569 -0.943521 -0.125629
-89.442619 0.000000 -44.721561 -0.992077 -0.000000 -0.125628
-95.105782 -30.901262 0.000000 -0.992077 -0.000000 -0.125628
-95.105782 30.901262 0.000000 -0.992077 -0.000000 -0.125628
-27.638802 85.064926 -44.721985 -0.306569 0.943521 -0.125629
-58.778561 80.901672 0.000000 -0.306569 0.943521 -0.125629
0.000000 99.999992 0.000000 -0.306569 0.943521 -0.125629
95.105782 30.901262 0.000000 0.101635 0.073842 0.992078
122.723297 127.359985 -10.008863 0.101635 0.073842 0.992078
58.778561 80.901672 0.000000 0.101635 0.073842 0.992078
16.245556 -49.999527 85.065437 0.000000 0.000000 0.000000
68.818939 -49.999695 52.573620 0.000000 0.000000 0.000000
68.818939 -49.999695 52.573620 0.000000 0.000000 0.000000
-72.360733 -52.572529 44.721951 -0.471300 -0.583122 0.661699
-26.286882 -80.901161 52.573765 -0.471300 -0.583122 0.661699
-42.532269 -30.901140 85.065422 -0.471300 -0.583122 0.661699
-72.360733 52.572529 44.721951 -0.700224 0.268032 0.661699
-85.064789 0.000000 52.573593 -0.700224 0.268032 0.661699
-42.532269 30.901140 85.065422 -0.700224 0.268032 0.661699
-26.286882 80.901161 52.573765 -0.724505 -0.435120 0.534569
17.513489 74.639824 106.840172 -0.724505 -0.435120 0.534569
-25.018951 105.541466 74.348495 -0.724505 -0.435120 0.534569
52.572979 0.000000 85.065170 -0.637702 0.554588 0.534574
107.592773 60.428177 88.008667 -0.637702 0.554588 0.534574
68.818939 49.999695 52.573620 -0.637702 0.554588 0.534574
52.572979 0.000000 85.065170 0.268034 0.194737 0.943523
16.245556 49.999527 85.065437 0.268034 0.194737 0.943523
0.000000 0.000000 100.000000 0.268034 0.194737 0.943523
52.572979 0.000000 85.065170 0.491119 0.356821 0.794657
68.818939 49.999695 52.573620 0.491119 0.356821 0.794657
16.245556 49.999527 85.065437 0.491119 0.356821 0.794657
68.818939 49.999695 52.573620 0.408946 0.628425 0.661699
27.638802 85.064926 44.721985 0.408946 0.628425 0.661699
16.245556 49.999527 85.065437 0.408946 0.628425 0.661699
16.245556 49.999527 85.065437 -0.102381 0.315090 0.943524
-42.532269 30.901140 85.065422 -0.102381 0.315090 0.943524
0.000000 0.000000 100.000000 -0.102381 0.315090 0.943524
16.245556 49.999527 85.065437 -0.187594 0.577345 0.794658
-26.286882 80.901161 52.573765 -0.187594 0.577345 0.794658
-42.532269 30.901140 85.065422 -0.187594 0.577345 0.794658
-26.286882 80.901161 52.573765 -0.471300 0.583122 0.661699
-72.360733 52.572529 44.721951 -0.471300 0.583122 0.661699
-42.532269 30.901140 85.065422 -0.471300 0.583122 0.661699
-42.532269 30.901140 85.065422 -0.331304 0.000000 0.943524
-42.532269 -30.901140 85.065422 -0.331304 0.000000 0.943524
0.000000 0.000000 100.000000 -0.331304 0.000000 0.943524
-42.532269 -30.901140 85.065422 -0.397323 -0.866029 -0.303527
-103.155792 0.000000 76.255119 -0.397323 -0.866029 -0.303527
-85.064789 0.000000 52.573593 -0.397323 -0.866029 -0.303527
-85.064789 0.000000 52.573593 -0.700224 -0.268032 0.661699
-72.360733 -52.572529 44.721951 -0.700224 -0.268032 0.661699
-42.532269 -30.901140 85.065422 -0.700224 -0.268032 0.661699
16.245556 -49.999527 85.065437 -0.291569 -0.897343 -0.331306
-43.661819 -34.377480 95.475166 -0.291569 -0.897343 -0.331306
-42.532269 -30.901140 85.065422 -0.291569 -0.897343 -0.331306
-42.532269 -30.901140 85.065422 -0.187594 -0.577345 0.794658
-26.286882 -80.901161 52.573765 -0.187594 -0.577345 0.794658
16.245556 -49.999527 85.065437 -0.187594 -0.577345 0.794658
-26.286882 -80.901161 52.573765 0.038530 -0.748779 0.661699
27.638802 -85.064926 44.721985 0.038530 -0.748779 0.661699
16.245556 -49.999527 85.065437 0.038530 -0.748779 0.661699
16.245556 -49.999527 85.065437 0.268034 -0.194737 0.943523
52.572979 0.000000 85.065170 0.268034 -0.194737 0.943523
0.000000 0.000000 100.000000 0.268034 -0.194737 0.943523
16.245556 -49.999527 85.065437 0.491119 -0.356821 0.794657
68.818939 -49.999695 52.573620 0.491119 -0.356821 0.794657
52.572979 0.000000 85.065170 0.491119 -0.356821 0.794657
68.818939 -49.999695 52.573620 0.724042 -0.194736 0.661695
89.442619 0.000000 44.721561 0.724042 -0.194736 0.661695
52.572979 0.000000 85.065170 0.724042 -0.194736 0.661695
95.105782 30.901262 0.000000 0.889697 0.315095 0.330385
68.818939 49.999695 52.573620 0.889697 0.315095 0.330385
89.442619 0.000000 44.721561 0.889697 0.315095 0.330385
95.105782 30.901262 0.000000 0.794656 0.577348 0.187595
58.778561 80.901672 0.000000 0.794656 0.577348 0.187595
68.818939 49.999695 52.573620 0.794656 0.577348 0.187595
58.778561 80.901672 0.000000 0.574602 0.748784 0.330388
27.638802 85.064926 44.721985 0.574602 0.748784 0.330388
68.818939 49.999695 52.573620 0.574602 0.748784 0.330388
0.000000 99.999992 0.000000 -0.024747 0.943521 0.330386
-26.286882 80.901161 52.573765 -0.024747 0.943521 0.330386
27.638802 85.064926 44.721985 -0.024747 0.943521 0.330386
-26.286882 80.901161 52.573765 -0.794660 -0.356825 0.491113
-69.629707 114.298058 6.706560 -0.794660 -0.356825 0.491113
-58.778561 80.901672 0.000000 -0.794660 -0.356825 0.491113
-58.778561 80.901672 0.000000 -0.534576 0.777865 0.330387
-72.360733 52.572529 44.721951 -0.534576 0.777865 0.330387
-26.286882 80.901161 52.573765 -0.534576 0.777865 0.330387
-95.105782 30.901262 0.000000 -0.904989 0.268032 0.330384
-85.064789 0.000000 52.573593 -0.904989 0.268032 0.330384
-72.360733 52.572529 44.721951 -0.904989 0.268032 0.330384
-95.105782 30.901262 0.000000 -0.982246 0.000000 0.187598
-95.105782 -30.901262 0.000000 -0.982246 0.000000 0.187598
-85.064789 0.000000 52.573593 -0.982246 0.000000 0.187598
-95.105782 -30.901262 0.000000 -0.393192 0.823510 -0.408940
-115.750099 -9.088099 63.775887 -0.393192 0.823510 -0.408940
-85.064789 0.000000 52.573593 -0.393192 0.823510 -0.408940
-58.778561 -80.901672 0.000000 -0.534576 -0.777865 0.330387
-26.286882 -80.901161 52.573765 -0.534576 -0.777865 0.330387
-72.360733 -52.572529 44.721951 -0.534576 -0.777865 0.330387
-26.286882 -80.901161 52.573765 0.852624 -0.178409 0.491124
-8.586899 -126.427719 5.307136 0.852624 -0.178409 0.491124
0.000000 -99.999992 0.000000 0.852624 -0.178409 0.491124
0.000000 -99.999992 0.000000 -0.024747 -0.943521 0.330386
27.638802 -85.064926 44.721985 -0.024747 -0.943521 0.330386
-26.286882 -80.901161 52.573765 -0.024747 -0.943521 0.330386
58.778561 -80.901672 0.000000 0.574602 -0.748784 0.330388
68.818939 -49.999695 52.573620 0.574602 -0.748784 0.330388
27.638802 -85.064926 44.721985 0.574602 -0.748784 0.330388
58.778561 -80.901672 0.000000 0.794656 -0.577348 0.187595
95.105782 -30.901262 0.000000 0.794656 -0.577348 0.187595
68.818939 -49.999695 52.573620 0.794656 -0.577348 0.187595
95.105782 -30.901262 0.000000 0.889697 -0.315095 0.330385
89.442619 0.000000 44.721561 0.889697 -0.315095 0.330385
68.818939 -49.999695 52.573620 0.889697 -0.315095 0.330385
58.778561 80.901672 0.000000 0.306569 0.943521 0.125629
0.000000 99.999992 0.000000 0.306569 0.943521 0.125629
27.638802 85.064926 44.721985 0.306569 0.943521 0.125629
58.778561 80.901672 0.000000 0.303531 0.934171 -0.187597
26.286882 80.901161 -52.573765 0.303531 0.934171 -0.187597
0.000000 99.999992 0.000000 0.303531 0.934171 -0.187597
26.286882 80.901161 -52.573765 0.000000 0.000000 0.000000
0.000000 99.999992 0.000000 0.000000 0.000000 0.000000
0.000000 99.999992 0.000000 0.000000 0.000000 0.000000
-58.778561 80.901672 0.000000 -0.802609 0.583126 0.125627
-95.105782 30.901262 0.000000 -0.802609 0.583126 0.125627
-72.360733 52.572529 44.721951 -0.802609 0.583126 0.125627
-68.818939 49.999695 -52.573620 -0.433152 -0.755764 -0.491123
-151.899200 72.163864 -13.407273 -0.433152 -0.755764 -0.491123
-125.612350 91.262299 -65.980896 -0.433152 -0.755764 -0.491123
-68.818939 49.999695 -52.573620 -0.889697 0.315095 -0.330385
-89.442619 0.000000 -44.721561 -0.889697 0.315095 -0.330385
-95.105782 30.901262 0.000000 -0.889697 0.315095 -0.330385
-95.105782 -30.901262 0.000000 -0.802609 -0.583126 0.125627
-58.778561 -80.901672 0.000000 -0.802609 -0.583126 0.125627
-72.360733 -52.572529 44.721951 -0.802609 -0.583126 0.125627
-95.105782 -30.901262 0.000000 -0.794656 -0.577348 -0.187595
-68.818939 -49.999695 -52.573620 -0.794656 -0.577348 -0.187595
-58.778561 -80.901672 0.000000 -0.794656 -0.577348 -0.187595
-68.818939 -49.999695 -52.573620 -0.574602 -0.748784 -0.330388
-27.638802 -85.064926 -44.721985 -0.574602 -0.748784 -0.330388
-58.778561 -80.901672 0.000000 -0.574602 -0.748784 -0.330388
0.000000 -99.999992 0.000000 0.306569 -0.943521 0.125629
58.778561 -80.901672 0.000000 0.306569 -0.943521 0.125629
27.638802 -85.064926 44.721985 0.306569 -0.943521 0.125629
0.000000 -99.999992 0.000000 0.303531 -0.934171 -0.187597
26.286882 -80.901161 -52.573765 0.303531 -0.934171 -0.187597
58.778561 -80.901672 0.000000 0.303531 -0.934171 -0.187597
26.286882 -80.901161 -52.573765 0.534576 -0.777865 -0.330387
72.360733 -52.572529 -44.721951 0.534576 -0.777865 -0.330387
58.778561 -80.901672 0.000000 0.534576 -0.777865 -0.330387
95.105782 -30.901262 0.000000 0.992077 0.000000 0.125628
95.105782 30.901262 0.000000 0.992077 0.000000 0.125628
89.442619 0.000000 44.721561 0.992077 0.000000 0.125628
95.105782 -30.901262 0.000000 0.982246 0.000000 -0.187598
85.064789 0.000000 -52.573593 0.982246 0.000000 -0.187598
95.105782 30.901262 0.000000 0.982246 0.000000 -0.187598
85.064789 0.000000 -52.573593 0.904989 0.268031 -0.330385
72.360733 52.572529 -44.721951 0.904989 0.268031 -0.330385
95.105782 30.901262 0.000000 0.904989 0.268031 -0.330385
42.532269 30.901140 -85.065422 0.471300 0.583122 -0.661699
26.286882 80.901161 -52.573765 0.471300 0.583122 -0.661699
72.360733 52.572529 -44.721951 0.471300 0.583122 -0.661699
42.532269 30.901140 -85.065422 0.187594 0.577345 -0.794658
-16.245556 49.999527 -85.065445 0.187594 0.577345 -0.794658
26.286882 80.901161 -52.573765 0.187594 0.577345 -0.794658
-16.245556 49.999527 -85.065445 -0.038530 0.748779 -0.661699
-27.638802 85.064926 -44.721985 -0.038530 0.748779 -0.661699
26.286882 80.901161 -52.573765 -0.038530 0.748779 -0.661699
-68.818939 49.999695 -52.573620 -0.330382 -0.777870 -0.534571
-32.940998 75.655319 -112.079636 -0.330382 -0.777870 -0.534571
-16.245556 49.999527 -85.065445 -0.330382 -0.777870 -0.534571
-16.245556 49.999527 -85.065445 -0.491119 0.356821 -0.794657
-52.572979 0.000000 -85.065170 -0.491119 0.356821 -0.794657
-68.818939 49.999695 -52.573620 -0.491119 0.356821 -0.794657
-52.572979 0.000000 -85.065170 -0.724042 0.194736 -0.661695
-89.442619 0.000000 -44.721561 -0.724042 0.194736 -0.661695
-68.818939 49.999695 -52.573620 -0.724042 0.194736 -0.661695
-68.818939 -49.999695 -52.573620 0.637702 -0.554588 -0.534574
-58.824028 -1.681262 -90.777939 0.637702 -0.554588 -0.534574
-52.572979 0.000000 -85.065170 0.637702 -0.554588 -0.534574
-52.572979 0.000000 -85.065170 -0.491119 -0.356821 -0.794657
-16.245556 -49.999527 -85.065445 -0.491119 -0.356821 -0.794657
-68.818939 -49.999695 -52.573620 -0.491119 -0.356821 -0.794657
-16.245556 -49.999527 -85.065445 -0.408946 -0.628425 -0.661698
-27.638802 -85.064926 -44.721985 -0.408946 -0.628425 -0.661698
-68.818939 -49.999695 -52.573620 -0.408946 -0.628425 -0.661698
85.064789 0.000000 -52.573593 0.700224 0.268032 -0.661699
42.532269 30.901140 -85.065422 0.700224 0.268032 -0.661699
72.360733 52.572529 -44.721951 0.700224 0.268032 -0.661699
42.532269 30.901140 -85.065422 -0.794656 0.000000 -0.607061
82.821396 -30.901140 -137.804779 -0.794656 0.000000 -0.607061
42.532269 -30.901140 -85.065422 -0.794656 0.000000 -0.607061
42.532269 -30.901140 -85.065422 0.331304 0.000000 -0.943524
0.000000 0.000000 -100.000000 0.331304 0.000000 -0.943524
42.532269 30.901140 -85.065422 0.331304 0.000000 -0.943524
-16.245556 -49.999527 -85.065445 -0.038530 -0.748779 -0.661699
26.286882 -80.901161 -52.573765 -0.038530 -0.748779 -0.661699
-27.638802 -85.064926 -44.721985 -0.038530 -0.748779 -0.661699
26.286882 -80.901161 -52.573765 0.946422 -0.110258 0.303527
47.859009 -47.294876 -107.629738 0.946422 -0.110258 0.303527
42.532269 -30.901140 -85.065422 0.946422 -0.110258 0.303527
42.532269 -30.901140 -85.065422 0.471300 -0.583122 -0.661699
72.360733 -52.572529 -44.721951 0.471300 -0.583122 -0.661699
26.286882 -80.901161 -52.573765 0.471300 -0.583122 -0.661699
68.818939 -49.999695 52.573620 0.330382 0.777870 0.534571
26.076334 -65.106430 100.972198 0.330382 0.777870 0.534571
78.649719 -65.106598 68.480392 0.330382 0.777870 0.534571
27.638802 -85.064926 44.721985 0.000000 0.000000 0.000000
16.245556 -49.999527 85.065437 0.000000 0.000000 0.000000
27.638802 -85.064926 44.721985 0.000000 0.000000 0.000000
37.469582 -100.171829 60.628754 0.408946 -0.628425 0.661699
78.649719 -65.106598 68.480392 0.408946 -0.628425 0.661699
26.076334 -65.106430 100.972198 0.408946 -0.628425 0.661699
27.638802 -85.064926 44.721985 -0.888429 -0.439812 0.131375
26.076334 -65.106430 100.972198 -0.888429 -0.439812 0.131375
16.245556 -49.999527 85.065437 -0.888429 -0.439812 0.131375
68.818939 -49.999695 52.573620 0.514820 -0.439823 -0.735878
37.469582 -100.171829 60.628754 0.514820 -0.439823 -0.735878
27.638802 -85.064926 44.721985 0.514820 -0.439823 -0.735878
128.216461 10.428487 80.156601 0.724042 0.194736 0.661695
107.592773 60.428177 88.008667 0.724042 0.194736 0.661695
91.346809 10.428487 120.500206 0.724042 0.194736 0.661695
89.442619 0.000000 44.721561 0.143749 -0.980856 0.131371
91.346809 10.428487 120.500206 0.143749 -0.980856 0.131371
52.572979 0.000000 85.065170 0.143749 -0.980856 0.131371
68.818939 49.999695 52.573620 0.577378 0.353719 -0.735879
128.216461 10.428487 80.156601 0.577378 0.353719 -0.735879
89.442619 0.000000 44.721561 0.577378 0.353719 -0.735879
119.150688 -86.567238 -52.045685 0.802609 -0.583127 -0.125627
141.895737 -64.895966 -7.323733 0.802609 -0.583127 -0.125627
105.568504 -114.896370 -7.323733 0.802609 -0.583127 -0.125627
72.360733 -52.572529 -44.721951 -0.542274 -0.625533 -0.560934
105.568504 -114.896370 -7.323733 -0.542274 -0.625533 -0.560934
58.778561 -80.901672 0.000000 -0.542274 -0.625533 -0.560934
72.360733 -52.572529 -44.721951 0.427346 0.709039 -0.560928
141.895737 -64.895966 -7.323733 0.427346 0.709039 -0.560928
119.150688 -86.567238 -52.045685 0.427346 0.709039 -0.560928
136.305481 99.030853 -54.730816 0.802609 0.583127 -0.125627
122.723297 127.359985 -10.008863 0.802609 0.583127 -0.125627
159.050522 77.359581 -10.008863 0.802609 0.583127 -0.125627
72.360733 52.572529 -44.721951 0.427346 -0.709039 -0.560927
159.050522 77.359581 -10.008863 0.427346 -0.709039 -0.560927
95.105782 30.901262 0.000000 0.427346 -0.709039 -0.560927
72.360733 52.572529 -44.721951 -0.542274 0.625533 -0.560934
122.723297 127.359985 -10.008863 -0.542274 0.625533 -0.560934
136.305481 99.030853 -54.730816 -0.542274 0.625533 -0.560934
-115.571976 122.164276 -13.407273 -0.794656 0.577348 -0.187595
-125.612350 91.262299 -65.980896 -0.794656 0.577348 -0.187595
-151.899200 72.163864 -13.407273 -0.794656 0.577348 -0.187595
-68.818939 49.999695 -52.573620 0.584919 0.645499 -0.491121
-115.571976 122.164276 -13.407273 0.584919 0.645499 -0.491121
-58.778561 80.901672 0.000000 0.584919 0.645499 -0.491121
-58.778561 80.901672 0.000000 -0.151768 0.110265 0.982247
-151.899200 72.163864 -13.407273 -0.151768 0.110265 0.982247
-95.105782 30.901262 0.000000 -0.151768 0.110265 0.982247
-125.791100 -39.989361 11.202292 -0.904989 -0.268032 0.330385
-103.046036 -61.660629 55.924244 -0.904989 -0.268032 0.330385
-115.750099 -9.088099 63.775887 -0.904989 -0.268032 0.330385
-85.064789 0.000000 52.573593 0.356317 -0.053217 0.932849
-103.046036 -61.660629 55.924244 0.356317 -0.053217 0.932849
-72.360733 -52.572529 44.721951 0.356317 -0.053217 0.932849
-95.105782 -30.901262 0.000000 0.088320 -0.878027 -0.470391
-103.046036 -61.660629 55.924244 0.088320 -0.878027 -0.470391
-125.791100 -39.989361 11.202292 0.088320 -0.878027 -0.470391
-67.365456 -107.329407 5.307136 -0.303531 -0.934171 0.187597
-8.586899 -126.427719 5.307136 -0.303531 -0.934171 0.187597
-34.873779 -107.328888 57.880901 -0.303531 -0.934171 0.187597
-58.778561 -80.901672 0.000000 -0.057971 -0.178416 -0.982246
-8.586899 -126.427719 5.307136 -0.057971 -0.178416 -0.982246
-67.365456 -107.329407 5.307136 -0.057971 -0.178416 -0.982246
-58.778561 -80.901672 0.000000 -0.794660 0.356825 0.491113
-34.873779 -107.328888 57.880901 -0.794660 0.356825 0.491113
-26.286882 -80.901161 52.573765 -0.794660 0.356825 0.491113
15.116003 -53.475864 95.475182 -0.291569 -0.897343 -0.331306
-46.410179 -42.835899 120.803543 -0.291569 -0.897343 -0.331306
-42.532269 -30.901140 85.065422 -0.619580 0.762254 0.187325
-1.129552 -3.476339 110.409752 -0.619580 0.762254 0.187325
0.000000 0.000000 100.000000 -0.619580 0.762254 0.187325
0.000000 0.000000 100.000000 0.949294 0.252486 0.187325
15.116003 -53.475864 95.475182 0.949294 0.252486 0.187325
16.245556 -49.999527 85.065437 0.949294 0.252486 0.187325
-10.918813 -66.393265 -107.629761 0.187594 -0.577345 -0.794658
47.859009 -47.294876 -107.629738 0.187594 -0.577345 -0.794658
31.613625 -97.294907 -75.138077 0.187594 -0.577345 -0.794658
42.532269 -30.901140 -85.065422 -0.245566 0.755763 -0.607058
-10.918813 -66.393265 -107.629761 -0.245566 0.755763 -0.607058
-16.245556 -49.999527 -85.065445 -0.245566 0.755763 -0.607058
-16.245556 -49.999527 -85.065445 -0.700857 -0.645501 0.303528
31.613625 -97.294907 -75.138077 -0.700857 -0.645501 0.303528
26.286882 -80.901161 -52.573765 -0.700857 -0.645501 0.303528
4.559107 14.031204 -142.015869 0.102381 0.315090 -0.943524
-11.686449 64.030731 -127.081314 0.102381 0.315090 -0.943524
47.091377 44.932346 -127.081284 0.102381 0.315090 -0.943524
42.532269 30.901140 -85.065422 0.619580 -0.762254 -0.187325
4.559107 14.031204 -142.015869 0.619580 -0.762254 -0.187325
47.091377 44.932346 -127.081284 0.619580 -0.762254 -0.187325
-16.245556 49.999527 -85.065445 -0.949294 -0.252486 -0.187325
4.559107 14.031204 -142.015869 -0.949294 -0.252486 -0.187325
0.000000 0.000000 -100.000000 -0.949294 -0.252486 -0.187325
-75.069984 -51.680954 -58.286392 0.637702 -0.554587 -0.534574
-93.882179 -11.110394 -122.817253 0.637702 -0.554587 -0.534574
-58.824028 -1.681262 -90.777939 0.637702 -0.554587 -0.534574
-89.442619 0.000000 -44.721561 -0.143749 0.980856 -0.131371
-58.824028 -1.681262 -90.777939 -0.143749 0.980856 -0.131371
-95.693672 -1.681262 -50.434334 -0.143749 0.980856 -0.131371
-89.442619 0.000000 -44.721561 -0.577378 -0.353719 0.735879
-75.069984 -51.680954 -58.286392 -0.577378 -0.353719 0.735879
-68.818939 -49.999695 -52.573620 -0.577378 -0.353719 0.735879
-10.851153 133.396393 6.706560 -0.303531 0.934171 0.187597
-69.629707 114.298058 6.706560 -0.303531 0.934171 0.187597
-37.138035 114.297554 59.280323 -0.303531 0.934171 0.187597
0.000000 99.999992 0.000000 -0.057971 0.178416 -0.982246
-69.629707 114.298058 6.706560 -0.057971 0.178416 -0.982246
-10.851153 133.396393 6.706560 -0.057971 0.178416 -0.982246
-26.286882 80.901161 52.573765 0.852624 0.178409 0.491124
-10.851153 133.396393 6.706560 0.852624 0.178409 0.491124
-37.138035 114.297554 59.280323 0.852624 0.178409 0.491124
-60.623276 30.901140 108.746948 -0.607060 0.000000 0.794656
-103.155792 0.000000 76.255119 -0.607060 0.000000 0.794656
-60.623276 -30.901140 108.746948 -0.607060 0.000000 0.794656
-85.064789 0.000000 52.573593 -0.397323 0.866029 -0.303527
-60.623276 30.901140 108.746948 -0.397323 0.866029 -0.303527
-42.532269 30.901140 85.065422 -0.397323 0.866029 -0.303527
-42.532269 30.901140 85.065422 0.794656 0.000000 0.607061
-60.623276 -30.901140 108.746948 0.794656 0.000000 0.607061
-42.532269 -30.901140 85.065422 0.794656 0.000000 0.607061
28.906733 109.705223 66.496719 0.038530 0.748779 0.661699
-25.018951 105.541466 74.348495 0.038530 0.748779 0.661699
17.513489 74.639824 106.840172 0.038530 0.748779 0.661699
27.638802 85.064926 44.721985 0.977271 -0.166382 0.131372
17.513489 74.639824 106.840172 0.977271 -0.166382 0.131372
16.245556 49.999527 85.065437 0.977271 -0.166382 0.131372
-26.286882 80.901161 52.573765 -0.157986 0.658427 -0.735877
28.906733 109.705223 66.496719 -0.157986 0.658427 -0.735877
27.638802 85.064926 44.721985 -0.157986 0.658427 -0.735877
-32.940998 75.655319 -112.079636 -0.408946 0.628425 -0.661698
-85.514381 75.655487 -79.587814 -0.408946 0.628425 -0.661698
-44.334244 110.720718 -71.736176 -0.408946 0.628425 -0.661698
-27.638802 85.064926 -44.721985 0.888429 0.439812 -0.131375
-32.940998 75.655319 -112.079636 0.888429 0.439812 -0.131375
-44.334244 110.720718 -71.736176 0.888429 0.439812 -0.131375
-27.638802 85.064926 -44.721985 -0.514820 0.439823 0.735878
-85.514381 75.655487 -79.587814 -0.514820 0.439823 0.735878
-68.818939 49.999695 -52.573620 -0.514820 0.439823 0.735878
-93.882179 -11.110394 -122.817253 -0.724042 -0.194736 -0.661696
-110.128143 -61.110085 -90.325714 -0.724042 -0.194736 -0.661696
-130.751831 -11.110394 -82.473656 -0.724042 -0.194736 -0.661696
-93.882179 -11.110394 -122.817253 -0.143749 0.980856 -0.131371
-130.751831 -11.110394 -82.473656 -0.143749 0.980856 -0.131371
-130.751831 -11.110394 -82.473656 -0.577378 -0.353719 0.735879
-110.128143 -61.110085 -90.325714 -0.577378 -0.353719 0.735879
26.286882 80.901161 -52.573765 0.904702 0.119471 0.408950
1.899393 172.418747 -25.358364 0.904702 0.119471 0.408950
0.000000 99.999992 0.000000 0.904702 0.119471 0.408950
-27.638802 85.064926 -44.721985 0.000000 0.000000 0.000000
-27.638802 85.064926 -44.721985 0.000000 0.000000 0.000000
26.286882 80.901161 -52.573765 0.000000 0.000000 0.000000
28.186277 153.319916 -77.932129 0.024747 0.943521 -0.330386
-25.739407 157.483673 -70.080353 0.024747 0.943521 -0.330386
1.899393 172.418747 -25.358364 0.024747 0.943521 -0.330386
-27.638802 85.064926 -44.721985 -0.862349 0.187329 0.470385
1.899393 172.418747 -25.358364 -0.862349 0.187329 0.470385
-25.739407 157.483673 -70.080353 -0.862349 0.187329 0.470385
26.286882 80.901161 -52.573765 -0.160722 -0.322433 -0.932848
-25.739407 157.483673 -70.080353 -0.160722 -0.322433 -0.932848
28.186277 153.319916 -77.932129 -0.160722 -0.322433 -0.932848
125.353912 0.000000 -105.312958 0.607060 0.000000 -0.794656
82.821396 -30.901140 -137.804779 0.607060 0.000000 -0.794656
82.821396 30.901140 -137.804779 0.607060 0.000000 -0.794656
42.532269 -30.901140 -85.065422 0.397323 -0.866029 0.303527
125.353912 0.000000 -105.312958 0.397323 -0.866029 0.303527
85.064789 0.000000 -52.573593 0.397323 -0.866029 0.303527
42.532269 30.901140 -85.065422 0.397323 0.866029 0.303527
125.353912 0.000000 -105.312958 0.397323 0.866029 0.303527
82.821396 30.901140 -137.804779 0.397323 0.866029 0.303527
-46.410179 -42.835899 120.803543 -0.102381 -0.315090 0.943523
12.367644 -61.934280 120.803574 -0.102381 -0.315090 0.943523
-3.877912 -11.934759 135.738129 -0.102381 -0.315090 0.943523
-1.129552 -3.476339 110.409752 -0.619579 0.762254 0.187325
-46.410179 -42.835899 120.803543 -0.619579 0.762254 0.187325
-3.877912 -11.934759 135.738129 -0.619579 0.762254 0.187325
-1.129552 -3.476339 110.409752 0.949295 0.252486 0.187325
12.367644 -61.934280 120.803574 0.949295 0.252486 0.187325
15.116003 -53.475864 95.475182 0.949295 0.252486 0.187325
47.091377 44.932346 -127.081284 0.291569 0.897343 0.331306
95.105782 -30.901262 0.000000 0.101635 -0.073842 0.992078
58.778561 -80.901672 0.000000 0.101635 -0.073842 0.992078
105.568504 -114.896370 -7.323733 0.101635 -0.073842 0.992078
159.050522 77.359581 -10.008863 0.101635 0.073842 0.992078
16.245556 49.999527 85.065437 -0.724505 -0.435120 0.534569
52.572979 0.000000 85.065170 -0.637702 0.554587 0.534574
91.346809 10.428487 120.500206 -0.637702 0.554587 0.534574
107.592773 60.428177 88.008667 -0.637702 0.554587 0.534574
-60.623276 -30.901140 108.746948 -0.397323 -0.866029 -0.303527
-37.138035 114.297554 59.280323 -0.794660 -0.356825 0.491113
-95.105782 -30.901262 0.000000 -0.393191 0.823510 -0.408940
-125.791100 -39.989361 11.202292 -0.393191 0.823510 -0.408940
-115.750099 -9.088099 63.775887 -0.393191 0.823510 -0.408940
-34.873779 -107.328888 57.880901 0.852624 -0.178409 0.491124
-68.818939 49.999695 -52.573620 -0.433152 -0.755764 -0.491122
-95.105782 30.901262 0.000000 -0.433152 -0.755764 -0.491122
-151.899200 72.163864 -13.407273 -0.433152 -0.755764 -0.491122
-85.514381 75.655487 -79.587814 -0.330382 -0.777870 -0.534571
-75.069984 -51.680954 -58.286392 0.637702 -0.554588 -0.534574
82.821396 30.901140 -137.804779 -0.794656 0.000000 -0.607061
31.613625 -97.294907 -75.138077 0.946422 -0.110258 0.303527
16.245556 -49.999527 85.065437 0.330382 0.777870 0.534571
37.469582 -100.171829 60.628754 -0.888429 -0.439812 0.131375
78.649719 -65.106598 68.480392 0.514820 -0.439823 -0.735878
128.216461 10.428487 80.156601 0.143749 -0.980856 0.131371
107.592773 60.428177 88.008667 0.577378 0.353719 -0.735879
119.150688 -86.567238 -52.045685 -0.542274 -0.625533 -0.560934
72.360733 -52.572529 -44.721951 0.427346 0.709039 -0.560927
95.105782 -30.901262 0.000000 0.427346 0.709039 -0.560927
141.895737 -64.895966 -7.323733 0.427346 0.709039 -0.560927
136.305481 99.030853 -54.730816 0.427346 -0.709039 -0.560927
58.778561 80.901672 0.000000 -0.542274 0.625533 -0.560934
-68.818939 49.999695 -52.573620 0.584920 0.645499 -0.491121
-125.612350 91.262299 -65.980896 0.584920 0.645499 -0.491121
-115.571976 122.164276 -13.407273 0.584920 0.645499 -0.491121
-115.571976 122.164276 -13.407273 -0.151768 0.110265 0.982247
-85.064789 0.000000 52.573593 0.356316 -0.053217 0.932849
-115.750099 -9.088099 63.775887 0.356316 -0.053217 0.932849
-103.046036 -61.660629 55.924244 0.356316 -0.053217 0.932849
-72.360733 -52.572529 44.721951 0.088320 -0.878027 -0.470391
0.000000 -99.999992 0.000000 -0.057971 -0.178416 -0.982246
-67.365456 -107.329407 5.307136 -0.794660 0.356825 0.491113
15.116003 -53.475864 95.475182 -0.291569 -0.897343 -0.331305
12.367644 -61.934280 120.803574 -0.291569 -0.897343 -0.331305
-46.410179 -42.835899 120.803543 -0.291569 -0.897343 -0.331305
-43.661819 -34.377480 95.475166 -0.619580 0.762254 0.187325
-1.129552 -3.476339 110.409752 0.949294 0.252486 0.187325
47.859009 -47.294876 -107.629738 -0.245566 0.755763 -0.607058
-16.245556 -49.999527 -85.065445 -0.700857 -0.645501 0.303527
-10.918813 -66.393265 -107.629761 -0.700857 -0.645501 0.303527
31.613625 -97.294907 -75.138077 -0.700857 -0.645501 0.303527
42.532269 30.901140 -85.065422 0.619579 -0.762254 -0.187325
0.000000 0.000000 -100.000000 0.619579 -0.762254 -0.187325
4.559107 14.031204 -142.015869 0.619579 -0.762254 -0.187325
-11.686449 64.030731 -127.081314 -0.949294 -0.252486 -0.187325
-110.128143 -61.110085 -90.325714 0.637702 -0.554587 -0.534574
-52.572979 0.000000 -85.065170 -0.143749 0.980856 -0.131371
-89.442619 0.000000 -44.721561 -0.577377 -0.353719 0.735879
-95.693672 -1.681262 -50.434334 -0.577377 -0.353719 0.735879
-75.069984 -51.680954 -58.286392 -0.577377 -0.353719 0.735879
-58.778561 80.901672 0.000000 -0.057971 0.178416 -0.982246
0.000000 99.999992 0.000000 0.852624 0.178409 0.491124
-103.155792 0.000000 76.255119 -0.397323 0.866029 -0.303527
-60.623276 30.901140 108.746948 0.794656 -0.000000 0.607061
28.906733 109.705223 66.496719 0.977271 -0.166382 0.131372
-26.286882 80.901161 52.573765 -0.157985 0.658427 -0.735877
-25.018951 105.541466 74.348495 -0.157985 0.658427 -0.735877
28.906733 109.705223 66.496719 -0.157985 0.658427 -0.735877
-16.245556 49.999527 -85.065445 0.888429 0.439812 -0.131375
-44.334244 110.720718 -71.736176 -0.514820 0.439823 0.735878
-95.693672 -1.681262 -50.434334 -0.577378 -0.353719 0.735879
28.186277 153.319916 -77.932129 0.904702 0.119471 0.408950
0.000000 99.999992 0.000000 -0.862349 0.187329 0.470385
-27.638802 85.064926 -44.721985 -0.160722 -0.322433 -0.932848
82.821396 -30.901140 -137.804779 0.397323 -0.866029 0.303527
85.064789 0.000000 -52.573593 0.397323 0.866029 0.303527
-46.410179 -42.835899 120.803543 -0.619580 0.762254 0.187325
-3.877912 -11.934759 135.738129 0.949294 0.252486 0.187325
12.367644 -61.934280 120.803574 0.949294 0.252486 0.187325
3 0 1 2
3 3 4 5
3 6 7 8
3 9 10 11
3 12 13 14
3 15 16 17
3 18 19 20
3 21 22 23
3 24 25 26
3 27 28 29
3 30 31 32
3 33 34 35
3 36 37 38
3 39 40 41
3 42 43 44
3 45 46 47
3 48 49 50
3 51 52 53
3 54 55 56
3 57 58 59
3 60 61 62
3 63 64 65
3 66 67 68
3 69 70 71
3 72 73 74
3 75 76 77
3 78 79 80
3 81 82 83
3 84 85 86
3 87 88 89
3 90 91 92
3 93 94 95
3 96 97 98
3 99 100 101
3 102 103 104
3 105 106 107
3 108 109 110
3 111 112 113
3 114 115 116
3 117 118 119
3 120 121 122
3 123 124 125
3 126 127 128
3 129 130 131
3 132 133 134
3 135 136 137
3 138 139 140
3 141 142 143
3 144 145 146
3 147 148 149
3 150 151 152
3 153 154 155
3 156 157 158
3 159 160 161
3 162 163 164
3 165 166 167
3 168 169 170
3 171 172 173
3 174 175 176
3 177 178 179
3 180 181 182
3 183 184 185
3 186 187 188
3 189 190 191
3 192 193 194
3 195 196 197
3 198 199 200
3 201 202 203
3 204 205 206
3 207 208 209
3 210 211 212
3 213 214 215
3 216 217 218
3 219 220 221
3 222 223 224
3 225 226 227
3 228 229 230
3 231 232 233
3 234 235 236
3 237 238 239
3 240 241 242
3 243 244 45
3 47 245 243
3 246 247 248
3 249 250 251
3 252 253 254
3 255 256 257
3 258 259 260
3 261 262 263
3 264 265 266
3 267 268 269
3 270 271 272
3 273 274 275
3 276 277 278
3 279 280 281
3 282 283 284
3 285 286 287
3 288 289 290
3 291 292 293
3 294 295 296
3 297 298 299
3 300 301 302
3 303 304 305
3 306 307 308
3 309 310 88
3 311 312 313
3 314 315 316
3 317 318 319
3 320 321 322
3 323 324 325
3 326 327 328
3 329 330 331
3 332 333 334
3 335 336 337
3 338 339 340
3 341 342 343
3 344 345 346
3 347 348 349
3 350 351 352
3 353 354 355
3 356 357 358
3 359 360 361
3 362 363 364
3 365 366 367
3 368 369 370
3 371 372 373
3 374 375 376
3 377 378 379
3 380 381 382
3 340 383 384
3 342 385 386
3 387 388 389
3 158 390 391
3 391 392 156
3 393 394 395
3 396 397 398
3 399 400 401
3 402 403 404
3 405 406 407
3 408 409 410
3 411 412 413
3 414 415 416
3 417 418 419
3 12 420 13
3 421 422 423
3 42 424 43
3 45 244 46
3 54 425 55
3 426 427 428
3 81 429 82
3 87 309 88
3 117 430 118
3 431 432 433
3 135 434 136
3 156 392 157
3 435 436 437
3 204 438 205
3 213 439 214
3 225 440 226
3 234 441 235
3 240 442 241
3 243 245 244
3 47 46 245
3 249 443 250
3 252 444 253
3 258 445 259
3 261 446 262
3 267 447 268
3 448 449 450
3 276 451 277
3 279 452 280
3 453 454 455
3 288 456 289
3 457 458 459
3 297 460 298
3 303 461 304
3 306 462 307
3 463 464 465
3 311 466 312
3 314 467 315
3 320 468 321
3 469 470 471
3 472 473 474
3 332 475 333
3 335 476 336
3 338 477 339
3 478 479 480
3 347 481 348
3 350 482 351
3 356 483 357
3 359 484 360
3 365 485 366
3 486 487 488
3 374 489 375
3 377 490 378
3 340 339 383
3 342 491 385
3 387 492 388
3 158 157 390
3 391 390 392
3 396 493 397
3 399 494 400
3 405 495 406
3 408 496 409
3 312 466 497
3 467 498 499
